<svg width="415" height="554" viewBox="0 0 415 554" fill="none" xmlns="http://www.w3.org/2000/svg">
<path d="M186.156 542.114C29.1443 314.493 0 291.133 0 207.479C0 92.891 92.891 0 207.479 0C322.066 0 414.958 92.891 414.958 207.479C414.958 291.133 385.813 314.493 228.802 542.114C218.498 556.998 196.459 556.997 186.156 542.114Z" fill="#F44D4D"/>
<circle cx="207" cy="211" r="155" fill="white"/>
<path d="M120.989 205.36V217.02H192.599V205.36H120.989ZM110.319 238.36V250.35H202.499V238.36H110.319ZM148.929 210.64V242.21H163.559V210.64H148.929ZM120.989 166.86V210.42H135.619V178.63H191.829V166.86H120.989ZM234.28 177.97V181.71C234.28 193.15 227.13 204.81 210.63 209.43L217.56 220.76C236.92 215.15 246.05 199.53 246.05 181.71V177.97H234.28ZM237.03 177.97V181.71C237.03 198.54 246.16 213.72 265.63 219.11L272.34 207.67C255.95 203.27 248.91 192.27 248.91 181.71V177.97H237.03ZM214.26 170.6V182.04H268.93V170.6H214.26ZM234.28 159.6V175.44H248.91V159.6H234.28ZM276.96 159.93V222.3H291.59V159.93H276.96ZM287.52 185.01V197H305.12V185.01H287.52ZM223.61 226.59V238.25H276.96V261.9H291.59V226.59H223.61Z" fill="black"/>
</svg>
