<svg width="85" height="85" viewBox="0 0 85 85" fill="none" xmlns="http://www.w3.org/2000/svg">
<path d="M42.4457 0C18.9979 0 0 18.9979 0 42.4457C0 65.8935 18.9979 84.8913 42.4457 84.8913C65.8935 84.8913 84.8913 65.8935 84.8913 42.4457C84.8913 18.9979 65.8935 0 42.4457 0ZM42.4457 76.676C23.5334 76.676 8.21529 61.3579 8.21529 42.4457C8.21529 23.5334 23.5334 8.21529 42.4457 8.21529C61.3579 8.21529 76.676 23.5334 76.676 42.4457C76.676 61.3579 61.3579 76.676 42.4457 76.676ZM53.0228 58.8078L38.4921 48.2477C37.9615 47.8541 37.6534 47.2379 37.6534 46.5875V18.4844C37.6534 17.3548 38.5776 16.4306 39.7072 16.4306H45.1841C46.3137 16.4306 47.2379 17.3548 47.2379 18.4844V42.7366L58.6709 51.0546C59.5951 51.7221 59.7833 53.0057 59.1159 53.93L55.8982 58.3628C55.2307 59.2699 53.9471 59.4753 53.0228 58.8078V58.8078Z" fill="black"/>
</svg>
