<svg width="16" height="16" viewBox="0 0 16 16" fill="none" xmlns="http://www.w3.org/2000/svg">
<path d="M8 0C3.58065 0 0 3.58065 0 8C0 12.4194 3.58065 16 8 16C12.4194 16 16 12.4194 16 8C16 3.58065 12.4194 0 8 0ZM11.9226 10.1C12.0742 10.2516 12.0742 10.4968 11.9226 10.6484L10.6452 11.9226C10.4935 12.0742 10.2484 12.0742 10.0968 11.9226L8 9.80645L5.9 11.9226C5.74839 12.0742 5.50323 12.0742 5.35161 11.9226L4.07742 10.6452C3.92581 10.4935 3.92581 10.2484 4.07742 10.0968L6.19355 8L4.07742 5.9C3.92581 5.74839 3.92581 5.50323 4.07742 5.35161L5.35484 4.07419C5.50645 3.92258 5.75161 3.92258 5.90323 4.07419L8 6.19355L10.1 4.07742C10.2516 3.92581 10.4968 3.92581 10.6484 4.07742L11.9258 5.35484C12.0774 5.50645 12.0774 5.75161 11.9258 5.90323L9.80645 8L11.9226 10.1Z" fill="black"/>
</svg>
