<svg width="14" height="11" viewBox="0 0 14 11" fill="none" xmlns="http://www.w3.org/2000/svg">
<path d="M6.81439 2.82433L2.33352 6.51484V10.498C2.33352 10.6011 2.37449 10.7 2.44741 10.7729C2.52034 10.8459 2.61924 10.8868 2.72238 10.8868L5.44585 10.8798C5.54864 10.8793 5.64705 10.8381 5.71956 10.7652C5.79206 10.6923 5.83276 10.5937 5.83276 10.4909V8.16482C5.83276 8.06169 5.87373 7.96278 5.94666 7.88986C6.01958 7.81693 6.11849 7.77596 6.22162 7.77596H7.77706C7.88019 7.77596 7.9791 7.81693 8.05202 7.88986C8.12495 7.96278 8.16592 8.06169 8.16592 8.16482V10.4892C8.16576 10.5404 8.1757 10.5911 8.19517 10.6384C8.21464 10.6857 8.24326 10.7287 8.27938 10.765C8.3155 10.8012 8.35843 10.83 8.40568 10.8496C8.45294 10.8692 8.50361 10.8793 8.55478 10.8793L11.2773 10.8868C11.3804 10.8868 11.4793 10.8459 11.5522 10.7729C11.6252 10.7 11.6661 10.6011 11.6661 10.498V6.51217L7.18623 2.82433C7.13357 2.78188 7.06796 2.75873 7.00031 2.75873C6.93266 2.75873 6.86706 2.78188 6.81439 2.82433V2.82433ZM13.8924 5.33271L11.8606 3.65795V0.291644C11.8606 0.214295 11.8298 0.140115 11.7751 0.0854207C11.7204 0.0307268 11.6463 0 11.5689 0H10.2079C10.1306 0 10.0564 0.0307268 10.0017 0.0854207C9.94699 0.140115 9.91627 0.214295 9.91627 0.291644V2.05633L7.74036 0.266125C7.53155 0.0942932 7.26952 0.000343495 6.9991 0.000343495C6.72867 0.000343495 6.46665 0.0942932 6.25783 0.266125L0.105842 5.33271C0.0763102 5.35712 0.0518772 5.38711 0.0339391 5.42097C0.016001 5.45482 0.00490953 5.49188 0.00129834 5.53002C-0.00231285 5.56817 0.00162705 5.60665 0.0128929 5.64327C0.0241588 5.67989 0.0425298 5.71393 0.0669563 5.74345L0.6867 6.49686C0.71106 6.52648 0.741023 6.55101 0.774874 6.56903C0.808724 6.58706 0.845797 6.59823 0.883971 6.60191C0.922145 6.60559 0.96067 6.6017 0.99734 6.59048C1.03401 6.57925 1.06811 6.5609 1.09768 6.53648L6.81439 1.82788C6.86706 1.78543 6.93266 1.76228 7.00031 1.76228C7.06796 1.76228 7.13357 1.78543 7.18623 1.82788L12.9032 6.53648C12.9327 6.5609 12.9667 6.57927 13.0034 6.59054C13.04 6.6018 13.0785 6.60574 13.1166 6.60213C13.1548 6.59852 13.1918 6.58743 13.2257 6.56949C13.2595 6.55155 13.2895 6.52712 13.3139 6.49759L13.9337 5.74418C13.9581 5.71449 13.9764 5.68027 13.9875 5.64349C13.9986 5.60671 14.0024 5.56809 13.9985 5.52986C13.9947 5.49162 13.9833 5.45452 13.9651 5.42069C13.9469 5.38685 13.9222 5.35696 13.8924 5.33271V5.33271Z" fill="black"/>
</svg>
