<svg width="12" height="13" viewBox="0 0 12 13" fill="none" xmlns="http://www.w3.org/2000/svg">
<g clip-path="url(#clip0_284_486)">
<path d="M1.80985 4.745C2.79485 0.415001 9.20985 0.420001 10.1899 4.75C10.7649 7.29 9.18485 9.44 7.79985 10.77C7.31589 11.2368 6.66973 11.4976 5.99735 11.4976C5.32498 11.4976 4.67882 11.2368 4.19485 10.77C2.81485 9.44 1.23485 7.285 1.80985 4.745Z" fill="#A4A4A4" stroke="#A4A4A4" stroke-width="1.5"/>
<path d="M5.99994 7.21473C6.2048 7.21473 6.40766 7.17438 6.59693 7.09598C6.7862 7.01758 6.95817 6.90267 7.10303 6.75781C7.24789 6.61295 7.3628 6.44098 7.44119 6.25171C7.51959 6.06244 7.55994 5.85959 7.55994 5.65473C7.55994 5.44986 7.51959 5.24701 7.44119 5.05774C7.3628 4.86847 7.24789 4.6965 7.10303 4.55164C6.95817 4.40678 6.7862 4.29187 6.59693 4.21347C6.40766 4.13508 6.2048 4.09473 5.99994 4.09473C5.5862 4.09473 5.18941 4.25908 4.89685 4.55164C4.6043 4.8442 4.43994 5.24099 4.43994 5.65473C4.43994 6.06846 4.6043 6.46526 4.89685 6.75781C5.18941 7.05037 5.5862 7.21473 5.99994 7.21473Z" fill="white" stroke="white" stroke-width="1.5"/>
</g>
<defs>
<clipPath id="clip0_284_486">
<rect width="12" height="12" fill="white" transform="translate(0 0.5)"/>
</clipPath>
</defs>
</svg>
