<svg width="10" height="12" viewBox="0 0 10 12" fill="none" xmlns="http://www.w3.org/2000/svg">
<path d="M9.31054 4.225C8.78554 1.915 6.77054 0.875 5.00054 0.875H4.99554C3.23054 0.875 1.21054 1.91 0.685536 4.22C0.100536 6.8 1.68054 8.985 3.11054 10.36C3.6174 10.8506 4.29514 11.1249 5.00054 11.125C5.68054 11.125 6.36054 10.87 6.88554 10.36C8.31554 8.985 9.89554 6.805 9.31054 4.225ZM5.00054 6.73C4.7937 6.73 4.5889 6.68926 4.39781 6.61011C4.20672 6.53096 4.0331 6.41495 3.88684 6.26869C3.74059 6.12244 3.62458 5.94881 3.54543 5.75773C3.46627 5.56664 3.42554 5.36183 3.42554 5.155C3.42554 4.94817 3.46627 4.74336 3.54543 4.55227C3.62458 4.36119 3.74059 4.18756 3.88684 4.04131C4.0331 3.89505 4.20672 3.77904 4.39781 3.69989C4.5889 3.62074 4.7937 3.58 5.00054 3.58C5.41825 3.58 5.81886 3.74594 6.11423 4.04131C6.4096 4.33668 6.57554 4.73728 6.57554 5.155C6.57554 5.57272 6.4096 5.97332 6.11423 6.26869C5.81886 6.56406 5.41825 6.73 5.00054 6.73Z" fill="black"/>
</svg>
