<svg width="12" height="12" viewBox="0 0 12 12" fill="none" xmlns="http://www.w3.org/2000/svg">
<path d="M10.3105 4.225C9.78548 1.915 7.77047 0.875 6.00047 0.875H5.99547C4.23047 0.875 2.21047 1.91 1.68547 4.22C1.10047 6.8 2.68047 8.985 4.11047 10.36C4.61734 10.8506 5.29507 11.1249 6.00047 11.125C6.68047 11.125 7.36047 10.87 7.88547 10.36C9.31547 8.985 10.8955 6.805 10.3105 4.225ZM6.00047 6.73C5.79364 6.73 5.58884 6.68926 5.39775 6.61011C5.20666 6.53096 5.03303 6.41495 4.88678 6.26869C4.74053 6.12244 4.62452 5.94881 4.54536 5.75773C4.46621 5.56664 4.42547 5.36183 4.42547 5.155C4.42547 4.94817 4.46621 4.74336 4.54536 4.55227C4.62452 4.36119 4.74053 4.18756 4.88678 4.04131C5.03303 3.89505 5.20666 3.77904 5.39775 3.69989C5.58884 3.62074 5.79364 3.58 6.00047 3.58C6.41819 3.58 6.8188 3.74594 7.11417 4.04131C7.40954 4.33668 7.57547 4.73728 7.57547 5.155C7.57547 5.57272 7.40954 5.97332 7.11417 6.26869C6.8188 6.56406 6.41819 6.73 6.00047 6.73Z" fill="black"/>
</svg>
