<svg width="15" height="16" viewBox="0 0 15 16" fill="none" xmlns="http://www.w3.org/2000/svg">
<path d="M12.9824 7H12.2324V4.75C12.2324 2.13125 10.1012 0 7.48242 0C4.86367 0 2.73242 2.13125 2.73242 4.75V7H1.98242C1.1543 7 0.482422 7.67188 0.482422 8.5V14.5C0.482422 15.3281 1.1543 16 1.98242 16H12.9824C13.8105 16 14.4824 15.3281 14.4824 14.5V8.5C14.4824 7.67188 13.8105 7 12.9824 7ZM9.73242 7H5.23242V4.75C5.23242 3.50938 6.2418 2.5 7.48242 2.5C8.72305 2.5 9.73242 3.50938 9.73242 4.75V7Z" fill="#636363"/>
</svg>
