<svg width="14" height="14" viewBox="0 0 14 14" fill="none" xmlns="http://www.w3.org/2000/svg">
<path d="M9.63053 11.6423L7.46501 13.8078C7.20872 14.0641 6.79323 14.0641 6.53693 13.8078L4.37142 11.6423C3.958 11.2289 4.2508 10.522 4.83547 10.522H6.23443L6.2344 7.76562H3.47804V9.16458C3.47804 9.74924 2.77118 10.042 2.35774 9.62863L0.19222 7.46312C-0.0640733 7.20683 -0.0640733 6.79131 0.19222 6.53505L2.35774 4.36954C2.77115 3.95613 3.47804 4.24893 3.47804 4.83359V6.23438H6.2344V3.47803H4.83358C4.24892 3.47803 3.95612 2.77116 4.36953 2.35773L6.53505 0.192219C6.79134 -0.0640731 7.20683 -0.0640731 7.46312 0.192219L9.62864 2.35773C10.0421 2.77114 9.74925 3.47803 9.16459 3.47803H7.76563V6.23438H10.522V4.83542C10.522 4.25076 11.2289 3.95796 11.6423 4.37137L13.8078 6.53688C14.0641 6.79317 14.0641 7.20869 13.8078 7.46495L11.6423 9.63046C11.2289 10.0439 10.522 9.75107 10.522 9.16641V7.76562H7.76565V10.522H9.16648C9.75114 10.522 10.0439 11.2288 9.63053 11.6423V11.6423Z" fill="#656464"/>
</svg>
