<svg width="14" height="14" viewBox="0 0 14 14" fill="none" xmlns="http://www.w3.org/2000/svg">
<path d="M13.6719 6.125H12.8416C12.4612 3.56357 10.4364 1.5388 7.875 1.15839V0.328125C7.875 0.146918 7.72808 0 7.54688 0H6.45312C6.27192 0 6.125 0.146918 6.125 0.328125V1.15839C3.56357 1.5388 1.5388 3.56357 1.15839 6.125H0.328125C0.146918 6.125 0 6.27192 0 6.45312V7.54688C0 7.72808 0.146918 7.875 0.328125 7.875H1.15839C1.5388 10.4364 3.56357 12.4612 6.125 12.8416V13.6719C6.125 13.8531 6.27192 14 6.45312 14H7.54688C7.72808 14 7.875 13.8531 7.875 13.6719V12.8416C10.4364 12.4612 12.4612 10.4364 12.8416 7.875H13.6719C13.8531 7.875 14 7.72808 14 7.54688V6.45312C14 6.27192 13.8531 6.125 13.6719 6.125V6.125ZM7.875 11.0642V9.95312C7.875 9.77192 7.72808 9.625 7.54688 9.625H6.45312C6.27192 9.625 6.125 9.77192 6.125 9.95312V11.0642C4.5343 10.7251 3.27532 9.46758 2.93579 7.875H4.04688C4.22808 7.875 4.375 7.72808 4.375 7.54688V6.45312C4.375 6.27192 4.22808 6.125 4.04688 6.125H2.93579C3.27491 4.5343 4.53242 3.27532 6.125 2.93579V4.04688C6.125 4.22808 6.27192 4.375 6.45312 4.375H7.54688C7.72808 4.375 7.875 4.22808 7.875 4.04688V2.93579C9.4657 3.27491 10.7247 4.53242 11.0642 6.125H9.95312C9.77192 6.125 9.625 6.27192 9.625 6.45312V7.54688C9.625 7.72808 9.77192 7.875 9.95312 7.875H11.0642C10.7251 9.4657 9.46758 10.7247 7.875 11.0642ZM7.875 7C7.875 7.48325 7.48325 7.875 7 7.875C6.51675 7.875 6.125 7.48325 6.125 7C6.125 6.51675 6.51675 6.125 7 6.125C7.48325 6.125 7.875 6.51675 7.875 7Z" fill="#656464"/>
</svg>
