<svg width="13" height="7" viewBox="0 0 13 7" fill="none" xmlns="http://www.w3.org/2000/svg">
<path d="M11.8895 0C11.3101 0 10.8404 0.469685 10.8404 1.04907V2.13889C10.8404 2.24632 10.7622 2.33333 10.6656 2.33333H10.3159C10.2193 2.33333 10.141 2.24632 10.141 2.13889V0.699381C10.141 0.313124 9.8279 0 9.44164 0C9.05539 0 8.74226 0.313123 8.74226 0.699381V2.13889C8.74226 2.24632 8.66402 2.33333 8.56742 2.33333H8.21773C8.12113 2.33333 8.04288 2.24632 8.04288 2.13889V0.699381C8.04288 0.313124 7.72976 0 7.3435 0C6.95724 0 6.64412 0.313123 6.64412 0.699381V2.13889C6.64412 2.24632 6.56588 2.33333 6.46928 2.33333H6.11958C6.02298 2.33333 5.94474 2.24632 5.94474 2.13889V0.699381C5.94474 0.313124 5.63162 0 5.24536 0C4.8591 0 4.54598 0.313123 4.54598 0.699381V2.13889C4.54598 2.24632 4.46773 2.33333 4.37113 2.33333H4.02144C3.92484 2.33333 3.8466 2.24632 3.8466 2.13889V0.699381C3.8466 0.313124 3.53347 0 3.14721 0C2.76096 0 2.44783 0.313123 2.44783 0.699381V2.13889C2.44783 2.24632 2.36959 2.33333 2.27299 2.33333H1.9233C1.8267 2.33333 1.74845 2.24632 1.74845 2.13889V1.04907C1.74845 0.469686 1.27877 0 0.699381 0C0.313192 0 0 0.348299 0 0.777778V5.44444C0 5.87392 0.313192 6.22222 0.699381 6.22222H11.8895C12.2757 6.22222 12.5889 5.87392 12.5889 5.44444V0.777778C12.5889 0.348299 12.2757 0 11.8895 0Z" fill="#A4A4A4"/>
</svg>
