<svg width="12" height="14" viewBox="0 0 12 14" fill="none" xmlns="http://www.w3.org/2000/svg">
<path d="M7.43779 2.6251C8.1627 2.6251 8.75034 2.03746 8.75034 1.31255C8.75034 0.58764 8.1627 0 7.43779 0C6.71288 0 6.12524 0.58764 6.12524 1.31255C6.12524 2.03746 6.71288 2.6251 7.43779 2.6251ZM3.10883 8.68116L2.70413 9.6251H0.875034C0.391851 9.6251 0 10.017 0 10.5001C0 10.9833 0.391851 11.3752 0.875034 11.3752H2.99289C3.51928 11.3752 3.99316 11.0623 4.19907 10.5797L4.43943 10.0186L4.14766 9.84632C3.67405 9.56658 3.32568 9.15258 3.10883 8.68116ZM10.5004 6.12497H9.29642L8.58381 4.66885C8.242 3.97019 7.61444 3.45939 6.89445 3.27591L4.95078 2.69784C4.17692 2.51189 3.37107 2.6828 2.74022 3.16653L1.65546 3.99809C1.27181 4.29204 1.19907 4.84113 1.49357 5.22477C1.78808 5.60842 2.33689 5.68034 2.72026 5.38666L3.80558 4.5551C4.01531 4.39404 4.28247 4.33634 4.49658 4.3872L4.89855 4.5067L3.87421 6.89636C3.52912 7.70249 3.83839 8.6467 4.59338 9.09243L6.91715 10.4643L6.16598 12.8633C6.0216 13.3243 6.27837 13.8151 6.7394 13.9595C6.82663 13.9869 6.91468 14 7.00137 14C7.37353 14 7.71862 13.7602 7.83593 13.3861L8.70112 10.6226C8.86273 10.0547 8.6221 9.44463 8.10938 9.13536L6.43478 8.14711L7.29095 6.00656L7.84523 7.13946C8.06399 7.58627 8.52666 7.87476 9.02406 7.87476H10.5004C10.9836 7.87476 11.3754 7.48291 11.3754 6.99973C11.3754 6.51654 10.9836 6.12497 10.5004 6.12497Z" fill="black"/>
</svg>
