<svg width="14" height="14" viewBox="0 0 14 14" fill="none" xmlns="http://www.w3.org/2000/svg">
<path d="M12.0808 11.2525L10.0975 9.275C10.7374 8.45977 11.0846 7.45305 11.0833 6.41667C11.0833 5.49369 10.8096 4.59144 10.2969 3.82401C9.78408 3.05658 9.05525 2.45844 8.20252 2.10523C7.3498 1.75202 6.41149 1.65961 5.50625 1.83967C4.601 2.01974 3.76948 2.46419 3.11684 3.11684C2.46419 3.76948 2.01974 4.601 1.83967 5.50625C1.65961 6.41149 1.75202 7.3498 2.10523 8.20252C2.45844 9.05525 3.05658 9.78408 3.82401 10.2969C4.59144 10.8096 5.49369 11.0833 6.41667 11.0833C7.45305 11.0846 8.45977 10.7374 9.275 10.0975L11.2525 12.0808C11.3067 12.1355 11.3712 12.1789 11.4423 12.2085C11.5134 12.2381 11.5897 12.2534 11.6667 12.2534C11.7437 12.2534 11.8199 12.2381 11.891 12.2085C11.9621 12.1789 12.0266 12.1355 12.0808 12.0808C12.1355 12.0266 12.1789 11.9621 12.2085 11.891C12.2381 11.8199 12.2534 11.7437 12.2534 11.6667C12.2534 11.5897 12.2381 11.5134 12.2085 11.4423C12.1789 11.3712 12.1355 11.3067 12.0808 11.2525ZM2.91667 6.41667C2.91667 5.72443 3.12194 5.04774 3.50653 4.47217C3.89111 3.8966 4.43774 3.448 5.07728 3.18309C5.71682 2.91818 6.42055 2.84887 7.09948 2.98392C7.77842 3.11897 8.40206 3.45231 8.89154 3.9418C9.38103 4.43128 9.71437 5.05492 9.84942 5.73385C9.98447 6.41279 9.91515 7.11652 9.65025 7.75606C9.38534 8.3956 8.93674 8.94223 8.36116 9.32681C7.78559 9.7114 7.1089 9.91667 6.41667 9.91667C5.48841 9.91667 4.59817 9.54792 3.9418 8.89154C3.28542 8.23517 2.91667 7.34493 2.91667 6.41667Z" fill="#231F20"/>
</svg>
