<svg width="14" height="14" viewBox="0 0 14 14" fill="none" xmlns="http://www.w3.org/2000/svg">
<path d="M13.8096 12.105L11.0832 9.37862C10.9602 9.25556 10.7934 9.1872 10.6184 9.1872H10.1726C10.9274 8.22189 11.3758 7.00774 11.3758 5.68694C11.3758 2.54491 8.82994 -0.000976562 5.68792 -0.000976562C2.54589 -0.000976562 0 2.54491 0 5.68694C0 8.82897 2.54589 11.3749 5.68792 11.3749C7.00872 11.3749 8.22287 10.9264 9.18817 10.1716V10.6174C9.18817 10.7924 9.25654 10.9592 9.37959 11.0823L12.106 13.8086C12.363 14.0657 12.7787 14.0657 13.033 13.8086L13.8069 13.0347C14.0639 12.7777 14.0639 12.362 13.8096 12.105ZM5.68792 9.1872C3.75457 9.1872 2.18766 7.62302 2.18766 5.68694C2.18766 3.7536 3.75184 2.18668 5.68792 2.18668C7.62126 2.18668 9.18817 3.75086 9.18817 5.68694C9.18817 7.62028 7.624 9.1872 5.68792 9.1872Z" fill="#6A6E69"/>
</svg>
