<svg width="415" height="554" viewBox="0 0 415 554" fill="none" xmlns="http://www.w3.org/2000/svg">
<path d="M186.156 542.114C29.1443 314.493 0 291.133 0 207.479C0 92.891 92.891 0 207.479 0C322.066 0 414.958 92.891 414.958 207.479C414.958 291.133 385.813 314.493 228.802 542.114C218.498 556.998 196.459 556.997 186.156 542.114Z" fill="#F44D4D"/>
<circle cx="207" cy="211" r="155" fill="white"/>
<path d="M148.929 211.74V226.48H163.559V211.74H148.929ZM110.429 203.16V213.83H202.169V203.16H110.429ZM148.929 159.82V172.14H163.449V159.82H148.929ZM148.049 172.8V174.78C148.049 181.82 138.699 188.75 113.839 189.74L117.909 200.63C146.069 199.09 160.919 189.41 160.919 174.78V172.8H148.049ZM151.459 172.8V174.78C151.459 189.41 166.309 199.09 194.359 200.63L198.429 189.74C173.679 188.75 164.329 181.82 164.329 174.78V172.8H151.459ZM119.009 167.85V178.52H193.479V167.85H119.009ZM120.769 219.99V230.55H176.759V235.39H120.879V254.86H135.289V245.18H191.169V219.99H120.769ZM120.879 250.46V261.13H193.809V250.46H120.879ZM214.37 164.44V208.99H263.32V164.44H248.8V176.43H228.89V164.44H214.37ZM228.89 187.43H248.8V197.55H228.89V187.43ZM276.96 159.93V211.63H291.59V159.93H276.96ZM285.65 179.51V191.39H305.01V179.51H285.65ZM224.27 215.59V226.81H277.18V232.86H224.49V255.41H239.01V243.31H291.59V215.59H224.27ZM224.49 249.8V261.13H294.56V249.8H224.49Z" fill="black"/>
</svg>
