<svg width="14" height="14" viewBox="0 0 14 14" fill="none" xmlns="http://www.w3.org/2000/svg">
<path d="M5.89425 6.22736H0.333114C0.149152 6.22736 0 6.07821 0 5.89425V0.333113C0 0.149152 0.149152 0 0.333114 0H1.66557C1.84953 0 1.99868 0.149152 1.99868 0.333113V2.50146C3.26932 1.09036 5.11496 0.207363 7.1668 0.22227C10.9672 0.249863 14.0081 3.32086 14 7.12138C13.9919 10.9166 10.9128 13.9908 7.11567 13.9908C5.33659 13.9908 3.71524 13.3159 2.49344 12.2082C2.35189 12.0799 2.34537 11.8597 2.48047 11.7246L3.42338 10.7817C3.54758 10.6575 3.74711 10.6508 3.87866 10.7671C4.74021 11.5295 5.87335 11.9921 7.11567 11.9921C9.81577 11.9921 12.0013 9.80697 12.0013 7.10642C12.0013 4.40634 9.81622 2.22076 7.11567 2.22076C5.49185 2.22076 4.05435 3.01123 3.16622 4.22868H5.89425C6.07821 4.22868 6.22736 4.37783 6.22736 4.56179V5.89425C6.22736 6.07821 6.07821 6.22736 5.89425 6.22736Z" fill="#555555"/>
</svg>
