<svg width="14" height="16" viewBox="0 0 14 16" fill="none" xmlns="http://www.w3.org/2000/svg">
<path d="M12.5 8.00003H4.75V4.77816C4.75 3.54066 5.74063 2.51253 6.97813 2.50003C8.22813 2.48753 9.25 3.50316 9.25 4.75003V5.25003C9.25 5.66566 9.58437 6.00003 10 6.00003H11C11.4156 6.00003 11.75 5.66566 11.75 5.25003V4.75003C11.75 2.12503 9.60938 -0.00934423 6.98438 3.07662e-05C4.35938 0.00940577 2.25 2.17191 2.25 4.79691V8.00003H1.5C0.671875 8.00003 0 8.67191 0 9.50003V14.5C0 15.3282 0.671875 16 1.5 16H12.5C13.3281 16 14 15.3282 14 14.5V9.50003C14 8.67191 13.3281 8.00003 12.5 8.00003Z" fill="#636363"/>
</svg>
