<svg width="24" height="25" viewBox="0 0 24 25" fill="none" xmlns="http://www.w3.org/2000/svg">
<path d="M12 0.432617C5.37097 0.432617 0 5.80358 0 12.4326C0 19.0616 5.37097 24.4326 12 24.4326C18.629 24.4326 24 19.0616 24 12.4326C24 5.80358 18.629 0.432617 12 0.432617ZM12 5.07778C14.3516 5.07778 16.2581 6.98423 16.2581 9.33584C16.2581 11.6875 14.3516 13.5939 12 13.5939C9.64839 13.5939 7.74194 11.6875 7.74194 9.33584C7.74194 6.98423 9.64839 5.07778 12 5.07778ZM12 21.7229C9.15968 21.7229 6.61452 20.4358 4.91129 18.4229C5.82097 16.71 7.60161 15.5294 9.67742 15.5294C9.79355 15.5294 9.90968 15.5487 10.021 15.5826C10.65 15.7858 11.3081 15.9165 12 15.9165C12.6919 15.9165 13.3548 15.7858 13.979 15.5826C14.0903 15.5487 14.2065 15.5294 14.3226 15.5294C16.3984 15.5294 18.179 16.71 19.0887 18.4229C17.3855 20.4358 14.8403 21.7229 12 21.7229Z" fill="black"/>
</svg>
