<svg width="11" height="12" viewBox="0 0 11 12" fill="none" xmlns="http://www.w3.org/2000/svg">
<path d="M5.75 6C7.40703 6 8.75 4.65703 8.75 3C8.75 1.34297 7.40703 0 5.75 0C4.09297 0 2.75 1.34297 2.75 3C2.75 4.65703 4.09297 6 5.75 6ZM7.85 6.75H7.45859C6.93828 6.98906 6.35938 7.125 5.75 7.125C5.14062 7.125 4.56406 6.98906 4.04141 6.75H3.65C1.91094 6.75 0.5 8.16094 0.5 9.9V10.875C0.5 11.4961 1.00391 12 1.625 12H9.875C10.4961 12 11 11.4961 11 10.875V9.9C11 8.16094 9.58906 6.75 7.85 6.75Z" fill="black"/>
</svg>
